<svg width="16" height="28" viewBox="0 0 16 28" fill="none" xmlns="http://www.w3.org/2000/svg">
<path fill-rule="evenodd" clip-rule="evenodd" d="M7.74464 22.3998C8.19253 22.3998 8.60942 22.5668 8.95832 22.8541L9.96741 0L10.5221 0.0388848L11.0767 0L12.0858 22.8541C12.4347 22.5668 12.8516 22.3998 13.2995 22.3998C14.5266 22.3998 15.5214 23.6535 15.5214 25.1998C15.5214 26.7462 14.5266 27.9998 13.2995 27.9998C12.0779 27.9998 11.0866 26.7576 11.0776 25.221L10.9534 22.4084H10.0907L9.96653 25.221C9.95747 26.7576 8.96615 27.9998 7.74464 27.9998C6.51747 27.9998 5.52271 26.7462 5.52271 25.1998C5.52271 23.6535 6.51747 22.3998 7.74464 22.3998ZM10.5221 12.639L10.8916 21.0084H10.1525L10.5221 12.639ZM10.5221 10.5243C10.8289 10.5243 11.0776 10.2113 11.0776 9.82527C11.0776 9.43923 10.8289 9.12626 10.5221 9.12626C10.2153 9.12626 9.96658 9.43923 9.96658 9.82527C9.96658 10.2113 10.2153 10.5243 10.5221 10.5243ZM7.74464 23.7998C7.13106 23.7998 6.63367 24.4266 6.63367 25.1998C6.63367 25.973 7.13106 26.5998 7.74464 26.5998C8.35823 26.5998 8.85561 25.973 8.85561 25.1998C8.85561 24.4266 8.35823 23.7998 7.74464 23.7998ZM12.1885 25.1998C12.1885 24.4266 12.6859 23.7998 13.2995 23.7998C13.9131 23.7998 14.4105 24.4266 14.4105 25.1998C14.4105 25.973 13.9131 26.5998 13.2995 26.5998C12.6859 26.5998 12.1885 25.973 12.1885 25.1998Z" fill="white"/>
<path fill-rule="evenodd" clip-rule="evenodd" d="M3.30085 0.163879L2.45956 0.799965L2.74536 1.4002C2.45956 0.799965 2.45879 0.800553 2.45879 0.800553L2.45795 0.801183L2.45618 0.802548L2.45207 0.805712L2.44184 0.813797C2.43412 0.819978 2.42462 0.827762 2.41346 0.837226C2.39118 0.856168 2.36224 0.881843 2.32753 0.914946C2.25815 0.981159 2.16588 1.07698 2.05795 1.20778C1.84175 1.46976 1.5644 1.87016 1.28277 2.45052C0.718232 3.61418 0.148582 5.47649 0.00332299 8.35347C-0.040938 9.23028 0.361555 9.9692 0.935871 10.3055C0.681237 10.6228 0.523423 11.0632 0.523423 11.5501V26.25C0.523423 27.2165 1.14518 28 1.91213 28C2.67909 28 3.30085 27.2165 3.30085 26.25V11.5501C3.30085 10.9246 3.04043 10.3758 2.64876 10.0664C3.04527 9.68248 3.30085 9.07894 3.30085 8.40016V0.163879ZM1.11207 8.44237C1.24333 5.84258 1.74093 4.22447 2.18988 3.26633V8.40016C2.18988 8.78676 1.94119 9.10015 1.63439 9.10015C1.31854 9.10015 1.09491 8.78242 1.11207 8.44237ZM2.18988 11.6102V11.5501C2.18988 11.3569 2.0655 11.2001 1.91213 11.2001C1.75871 11.2001 1.63439 11.3569 1.63439 11.5501V12.3102L2.18988 11.6102ZM2.18988 13.5901V14.4102L1.63439 15.1102V14.2901L2.18988 13.5901ZM2.18988 17.2102V16.39L1.63439 17.09V17.9102L2.18988 17.2102ZM2.18988 19.19V26.25C2.18988 26.4433 2.0655 26.6 1.91213 26.6C1.75871 26.6 1.63439 26.4433 1.63439 26.25V19.89L2.18988 19.19Z" fill="white"/>
</svg>
