<svg width="21" height="28" viewBox="0 0 21 28" fill="none" xmlns="http://www.w3.org/2000/svg">
<path d="M16.3467 27.1661C14.2467 27.1661 13.3717 20.5444 13.3717 20.2048C13.1967 17.9976 11.6217 16.6392 10.5717 16.4695C9.52171 16.4695 8.12171 17.9976 7.77171 20.2048C7.77171 20.5444 6.89671 27.1661 4.79671 27.1661C2.69671 27.1661 1.64671 19.6954 1.47171 19.6954C1.12171 17.3184 1.64671 13.9226 1.82171 12.9039C1.12171 10.8664 -1.32828 3.39575 0.946715 1.01872C1.82171 0.339562 2.87171 -1.52588e-05 4.27171 -1.52588e-05C5.32171 -1.52588e-05 6.54671 0.169773 7.77171 0.50935C8.82171 0.679138 9.69671 0.848927 10.5717 0.848927C11.4467 0.848927 12.3217 0.679138 13.3717 0.50935C14.5967 0.169773 15.8217 -1.52588e-05 16.8717 -1.52588e-05C18.2717 -1.52588e-05 19.3217 0.339562 20.0217 1.1885C22.2967 3.56554 19.8467 11.0362 19.1467 13.0737C19.3217 13.9226 19.8467 17.3184 19.4967 19.6954C19.6717 19.6954 18.6217 27.1661 16.3467 27.1661ZM10.5717 14.7716C12.8467 14.9414 14.7717 17.1486 15.1217 20.035C15.2967 22.0725 15.9967 24.1099 16.3467 24.9589C16.8717 23.9401 17.5717 21.3933 17.9217 19.3559C18.2717 16.9788 17.5717 13.0737 17.5717 13.0737V12.7341C18.7967 9.16856 20.0217 3.73533 18.9717 2.37702C18.4467 1.86766 17.7467 1.69787 16.8717 1.69787C15.9967 1.69787 14.7717 1.86766 13.7217 2.20723C12.6717 2.37702 11.6217 2.54681 10.5717 2.54681C9.52171 2.54681 8.47171 2.37702 7.42171 2.20723C6.37171 1.86766 5.14671 1.69787 4.27171 1.69787C3.39671 1.69787 2.69671 1.86766 2.34671 2.37702C1.12171 3.56554 2.34671 9.16856 3.74671 12.7341V13.0737C3.74671 13.0737 3.04672 16.9788 3.39671 19.3559C3.74671 21.3933 4.44671 23.9401 4.97171 24.9589C5.32171 23.9401 6.02171 22.0725 6.19671 20.035C6.37171 17.3184 8.29671 14.9414 10.5717 14.7716Z" fill="white"/>
</svg>
