<svg width="24" height="23" viewBox="0 0 24 23" fill="none" xmlns="http://www.w3.org/2000/svg">
<path d="M2.33333 15.8469V20.3746H7V22.6385H0V15.8469H2.33333ZM23.3333 15.8469V22.6385H16.3333V20.3746H21V15.8469H23.3333ZM6.41667 5.65961C6.41669 6.814 6.82068 7.93417 7.56251 8.83672C8.30433 9.73926 9.34003 10.3707 10.5 10.6276V16.9788H12.8333L12.8345 10.6265C13.9941 10.3694 15.0293 9.73802 15.7709 8.83573C16.5125 7.93344 16.9164 6.81365 16.9167 5.65961H19.25C19.2503 7.00591 18.8698 8.32648 18.15 9.47749C17.4302 10.6285 16.3987 11.5658 15.1678 12.1874L15.1667 19.2427H8.16667V12.1885C6.93539 11.567 5.90354 10.6296 5.18353 9.47835C4.46352 8.3271 4.08297 7.00622 4.08333 5.65961H6.41667ZM11.6667 3.39577C12.4402 3.39577 13.1821 3.69391 13.7291 4.2246C14.276 4.75529 14.5833 5.47506 14.5833 6.22557C14.5833 6.97609 14.276 7.69586 13.7291 8.22655C13.1821 8.75724 12.4402 9.05538 11.6667 9.05538C10.8931 9.05538 10.1513 8.75724 9.60427 8.22655C9.05729 7.69586 8.75 6.97609 8.75 6.22557C8.75 5.47506 9.05729 4.75529 9.60427 4.2246C10.1513 3.69391 10.8931 3.39577 11.6667 3.39577ZM7 0V2.26385L2.33333 2.26271V6.79154H0V0H7ZM23.3333 0V6.79154H21V2.26385H16.3333V0H23.3333Z" fill="white"/>
</svg>
