<svg width="19" height="24" viewBox="0 0 19 24" fill="none" xmlns="http://www.w3.org/2000/svg">
<path d="M5.88677 13.1666L1.2201 16.6666C0.0534375 17.6933 -0.109896 19.14 0.0534374 20.1666C0.205104 21.3333 1.1151 22.7566 2.38677 23.2933C4.21844 24.075 5.99177 23.55 7.1001 22.4066L17.5534 13.1666C19.7234 11.5566 18.7201 8.49998 16.3868 8.49998H9.38677L18.0901 3.37831C18.6034 3.00498 18.8134 2.45665 18.7901 1.93165C18.7201 1.11498 18.0901 0.333313 17.0868 0.333313H17.0168C16.6084 0.333313 16.2234 0.461646 15.8734 0.671646L1.2201 8.49998C0.275104 9.03665 -0.0165626 9.94665 0.0534374 10.8333C0.111771 12.035 0.916771 13.1666 2.38677 13.1666H5.88677ZM1.2201 19.5833C1.2201 17.9733 2.52677 16.6666 4.13677 16.6666C5.74677 16.6666 7.05344 17.9733 7.05344 19.5833C7.05344 21.1933 5.74677 22.5 4.13677 22.5C2.52677 22.5 1.2201 21.1933 1.2201 19.5833Z" fill="white"/>
</svg>
